<!DOCTYPE svg PUBLIC "-//W3C//DTD SVG 20010904//EN" "http://www.w3.org/TR/2001/REC-SVG-20010904/DTD/svg10.dtd">
<svg version="1.0" xmlns="http://www.w3.org/2000/svg" width="168px" height="63px" viewBox="0 0 1680 630" preserveAspectRatio="xMidYMid meet">
<g id="layer101" fill="#ef0d33" stroke="none">
 <path d="M1003 509 c-33 -10 -73 -51 -73 -76 0 -12 9 -13 43 -7 82 14 127 3 127 -31 0 -19 -16 -35 -75 -75 -41 -28 -79 -59 -85 -69 -55 -103 126 -223 219 -145 17 14 31 34 31 44 0 16 -7 17 -63 13 -49 -4 -65 -2 -76 10 -20 25 -3 55 47 82 83 44 112 79 112 138 0 49 -47 100 -105 116 -46 13 -58 13 -102 0z"/>
 <path d="M100 490 c-32 -32 -26 -55 17 -66 66 -16 78 -46 81 -200 l4 -134 37 0 c38 0 38 0 45 46 3 26 6 92 6 148 0 78 -5 111 -20 143 -33 74 -125 108 -170 63z"/>
 <path d="M391 486 c-18 -21 -26 -335 -9 -365 16 -30 58 -43 107 -33 35 8 35 8 81 140 25 72 47 132 50 132 3 0 25 -60 50 -133 l46 -132 67 -3 67 -3 0 206 0 205 -39 0 -38 0 -7 -52 c-3 -29 -6 -98 -6 -153 l-1 -100 -19 71 c-21 83 -66 192 -88 217 -45 51 -98 -2 -142 -141 -46 -147 -50 -146 -50 16 l0 142 -29 0 c-16 0 -34 -6 -40 -14z"/>
 <path d="M1290 296 l0 -204 60 -7 c66 -8 131 0 171 21 40 20 79 72 79 104 0 58 -91 132 -179 146 l-41 7 0 68 0 69 -45 0 -45 0 0 -204z m188 -43 c57 -63 -35 -147 -106 -97 -41 28 -23 108 28 127 24 9 53 -3 78 -30z"/>
 </g>

</svg>